<svg xmlns="http://www.w3.org/2000/svg" width="215.709" height="115" viewBox="0 0 215.709 115">
  <g id="UNC_LOGO" data-name="UNC LOGO" transform="translate(-34.902 -468.17)">
    <g id="Group_1" data-name="Group 1" transform="translate(34.902 468.17)">
      <path id="Path_1" data-name="Path 1" d="M199.9,502.08c0,12.894,8.325,21.558,20.717,21.558a29.456,29.456,0,0,0,19.912-7.519l1.706-1.492v14.438l-.407.308c-5.371,4.082-14.023,6.619-22.578,6.619a35.88,35.88,0,0,1-24.425-9.069C188,520.662,184.4,512.072,184.4,502.08S188,483.5,194.827,477.239a35.88,35.88,0,0,1,24.425-9.069c8.556,0,17.207,2.536,22.578,6.618l.407.309v14.439l-1.706-1.493a29.455,29.455,0,0,0-19.912-7.518C208.033,480.524,199.9,488.986,199.9,502.08Zm-27.248-3.27h0V469.828h-12.7v16.715c-3.332-2.788-21.122-16.715-43.98-16.715v12.188c27.264,0,46.417,19.833,56.68,34.125Z" transform="translate(-43.046 -468.17)" fill="#003964"/>
      <path id="Path_2" data-name="Path 2" d="M57.043,583.355V570.483H43.3v12.872H37.369V554.211H43.3v11.27H57.043v-11.27h5.926v29.144Zm18.79,0V554.211H94.825v4.615H81.759v6.848H92.4v4.615H81.759v8.452H95.636l-.927,4.615Zm53.411,0-2.963-7.188h-11.8l-2.963,7.188h-5.732l12.387-29.144h4.615l12.386,29.144ZM120.4,561.448l-4.324,10.589h8.6Zm25.963,21.908V554.211h5.926v24.53h13.067l-.927,4.615Zm38.835-24.53v24.53h-5.926v-24.53h-9.861v-4.615h25.648v4.615Zm40.5,24.53V570.483H211.951v12.872h-5.926V554.211h5.926v11.27H225.7v-11.27h5.926v29.144ZM80.066,470.013v34.379c0,12.706-5.071,19.148-15.072,19.148S49.924,517.1,49.924,504.392V470.013H34.9v34.8c0,19.891,11.171,31.766,29.884,31.766,18.925,0,29.779-11.578,29.779-31.766v-34.8Zm27.763,64.767h12.7V506s17.755,4.761,29.841,28.777l14.138,0s-20.569-42.918-56.681-42.918Z" transform="translate(-34.902 -468.355)" fill="#619fcb"/>
    </g>
    <path id="Path_3" data-name="Path 3" d="M263.283,595.289a3.322,3.322,0,0,1-2.2-.775l.29-.993a2.8,2.8,0,0,0,1.913.837c.622,0,1.1-.31,1.1-.858,0-.517-.29-.786-1.3-1.035-1.3-.32-1.821-1.014-1.821-1.9,0-1.014.807-1.749,2.142-1.749a3.14,3.14,0,0,1,1.862.611l-.269.88a3.126,3.126,0,0,0-1.6-.539c-.611,0-.973.27-.973.714,0,.363.218.641,1.066.849,1.448.362,2.069.971,2.069,2.048C265.549,594.709,264.452,595.289,263.283,595.289Zm8.9-.124v-3.807c0-.145.031-.548.041-.59l-.228.59-1.666,3.807h-.775l-1.666-3.807c-.063-.145-.2-.528-.218-.59,0,.031.031.445.031.59v3.807H266.6v-6.208h1.345l2.049,4.543,2.037-4.543h1.3v6.208Z" transform="translate(-22.72 -12.119)" fill="#619fcb"/>
  </g>
</svg>
