<?xml version="1.0" encoding="utf-8"?>
<!-- Generator: Adobe Illustrator 25.2.3, SVG Export Plug-In . SVG Version: 6.00 Build 0)  -->
<svg version="1.1" id="Layer_1" xmlns="http://www.w3.org/2000/svg" xmlns:xlink="http://www.w3.org/1999/xlink" x="0px" y="0px"
	 width="215.7px" height="115px" viewBox="0 0 215.7 115" style="enable-background:new 0 0 215.7 115;" xml:space="preserve">
<style type="text/css">
	.st0{fill:#FFFFFF;}
</style>
<g id="UNC_LOGO" transform="translate(-34.902 -468.17)">
	<g id="Group_1" transform="translate(34.902 468.17)">
		<path id="Path_1" class="st0" d="M156.9,33.9c0,12.9,8.3,21.6,20.7,21.6c7.3,0.1,14.4-2.6,19.9-7.5l1.7-1.5v14.4l-0.4,0.3
			c-5.4,4.1-14,6.6-22.6,6.6c-9,0.1-17.7-3.1-24.4-9.1c-6.8-6.3-10.4-14.9-10.4-24.8s3.6-18.6,10.4-24.8c6.7-6,15.4-9.2,24.4-9.1
			c8.6,0,17.2,2.5,22.6,6.6l0.4,0.3v14.4l-1.7-1.5c-5.5-4.9-12.6-7.6-19.9-7.5C165,12.4,156.9,20.8,156.9,33.9z M129.6,30.6
			L129.6,30.6v-29h-12.7v16.7c-3.3-2.8-21.1-16.7-44-16.7v12.2c27.3,0,46.4,19.8,56.7,34.1L129.6,30.6z"/>
		<path id="Path_2" class="st0" d="M22.1,115v-12.9H8.4V115H2.5V85.9h5.9v11.3h13.7V85.9h5.9V115H22.1z M40.9,115V85.9h19v4.6H46.9
			v6.8h10.6v4.6H46.9v8.5h13.9l-0.9,4.6L40.9,115z M94.3,115l-3-7.2H79.6l-3,7.2h-5.7l12.4-29.1h4.6l12.4,29.1H94.3z M85.5,93.1
			l-4.3,10.6h8.6L85.5,93.1z M111.5,115V85.9h5.9v24.5h13.1l-0.9,4.6H111.5z M150.3,90.5V115h-5.9V90.5h-9.9v-4.6h25.6v4.6H150.3z
			 M190.8,115v-12.9H177V115h-5.9V85.9h5.9v11.3h13.7V85.9h5.9V115L190.8,115z M45.2,1.7V36c0,12.7-5.1,19.1-15.1,19.1
			S15,48.7,15,36V1.7H0v34.8c0,19.9,11.2,31.8,29.9,31.8c18.9,0,29.8-11.6,29.8-31.8V1.7H45.2z M72.9,66.4h12.7V37.6
			c0,0,17.8,4.8,29.8,28.8h14.1c0,0-20.6-42.9-56.7-42.9L72.9,66.4z"/>
	</g>
	<path id="Path_3" class="st0" d="M240.6,583.2c-0.8,0-1.6-0.3-2.2-0.8l0.3-1c0.5,0.5,1.2,0.8,1.9,0.8c0.6,0,1.1-0.3,1.1-0.9
		c0-0.5-0.3-0.8-1.3-1c-1.3-0.3-1.8-1-1.8-1.9c0-1,0.8-1.7,2.1-1.7c0.7,0,1.3,0.2,1.9,0.6l-0.3,0.9c-0.5-0.3-1-0.5-1.6-0.5
		c-0.6,0-1,0.3-1,0.7c0,0.4,0.2,0.6,1.1,0.8c1.4,0.4,2.1,1,2.1,2C242.8,582.6,241.7,583.2,240.6,583.2z M249.5,583v-3.8
		c0-0.1,0-0.5,0-0.6l-0.2,0.6l-1.7,3.8h-0.8l-1.7-3.8c-0.1-0.1-0.2-0.5-0.2-0.6c0,0,0,0.4,0,0.6v3.8h-1.1v-6.2h1.3l2,4.5l2-4.5h1.3
		v6.2H249.5z"/>
</g>
</svg>
